<svg xmlns="http://www.w3.org/2000/svg" viewBox="0 0 24 24" fill="currentColor">
  <path d="M17.05 20.28c-.98.95-2.05.88-3.08.82-1.05-.07-2.12-.07-3.23 0-1.11.07-2.2.13-3.24-.82-.99-.95-.74-2.32-.69-3.67.05-1.35.05-2.71 0-4.06-.05-1.35-.3-2.72.69-3.67 1.04-.95 2.13-.89 3.24-.82 1.11.07 2.18.07 3.23 0 1.03-.07 2.1-.13 3.08.82.99.95.74 2.32.69 3.67-.05 1.35-.05 2.71 0 4.06.05 1.35.3 2.72-.69 3.67zm-1.05-11.28c-.5 0-.9.4-.9.9s.4.9.9.9.9-.4.9-.9-.4-.9-.9-.9zm-6.9 0c-.5 0-.9.4-.9.9s.4.9.9.9.9-.4.9-.9-.4-.9-.9-.9zm3.45 4.5c-1.66 0-3-1.34-3-3s1.34-3 3-3 3 1.34 3 3-1.34 3-3 3z"/>
</svg>

